<?xml version="1.0" encoding="UTF-8"?>
<svg xmlns="http://www.w3.org/2000/svg" width="865.76" height="682.89" viewBox="0 0 865.76 682.89">
  <rect x="578.24" y="293.59" width="35.46" height="21.3" fill="#d1d3d4"></rect>
  <path d="M614.2,315.39H577.74v-22.3H614.2Zm-35.46-1H613.2v-20.3H578.74Z" fill="#2f2e41"></path>
  <polygon points="611.94 314.65 625.35 634.72 715.34 634.72 761.21 314.65 611.94 314.65" fill="#e6e7e8"></polygon>
  <path d="M715.77,635.22h-90.9l0-.48L611.42,314.15H761.79l-.08.57Zm-89.94-1H714.9l45.73-319.07H612.46Z" fill="#2f2e41"></path>
  <polygon points="581.94 315 607.7 634.37 625.35 634.37 611.94 314.65 581.94 315" fill="#d1d3d4"></polygon>
  <path d="M625.87,634.87H607.24L581.4,314.51l31-.37,0,.49Zm-17.71-1h16.67L611.46,315.15l-29,.35Z" fill="#2f2e41"></path>
  <path d="M707.92,620.4h-67.4a.5.5,0,0,1-.5-.47L625.55,426.55A.5.5,0,0,1,626,426a.49.49,0,0,1,.53.46L641,619.4H707.5L724,515a.5.5,0,0,1,.57-.41.49.49,0,0,1,.41.57L708.42,620A.51.51,0,0,1,707.92,620.4Z" fill="#2f2e41"></path>
  <path d="M697,293.62a.49.49,0,0,1-.49-.45l-2.12-24c-1.73-27.34-19.06-42.57-19.24-42.72a.5.5,0,0,1,.65-.76c.18.16,17.83,15.64,19.59,43.4l2.11,24a.49.49,0,0,1-.45.54Z" fill="#2f2e41"></path>
  <ellipse cx="675.1" cy="225.01" rx="7.41" ry="9.72" transform="matrix(0.87, -0.5, 0.5, 0.87, -22.06, 367.7)" fill="#f8844bff"></ellipse>
  <path d="M677,234.72a8.16,8.16,0,0,1-3.16-.67,12.48,12.48,0,0,1-7.17-12.43,6.75,6.75,0,0,1,9.76-5.64,12.47,12.47,0,0,1,7.18,12.43,7.09,7.09,0,0,1-3.36,5.45A6.45,6.45,0,0,1,677,234.72Zm-3.73-18.41a5.42,5.42,0,0,0-2.74.72,6.12,6.12,0,0,0-2.87,4.72,11.46,11.46,0,0,0,6.57,11.38,5.75,5.75,0,0,0,8.39-4.85,10.81,10.81,0,0,0-1.5-6.72h0A10.87,10.87,0,0,0,676,216.9,7.32,7.32,0,0,0,673.23,216.31Z" fill="#2f2e41"></path>
  <path d="M181.61,514.28l-8,111.6a9.3,9.3,0,0,1-9.27,8.63H137a9.29,9.29,0,0,1-9.24-8.35L116.3,514.28Z" fill="#e6e7e8"></path>
  <path d="M164.3,635H137a9.76,9.76,0,0,1-9.74-8.8L115.75,513.78h66.4l0,.54-8.05,111.6A9.81,9.81,0,0,1,164.3,635ZM116.85,514.78l11.37,111.33A8.77,8.77,0,0,0,137,634H164.3a8.83,8.83,0,0,0,8.77-8.16l8-111.07Z" fill="#2f2e41"></path>
  <path d="M214.6,305.81c0,6.76-1.61,17.86-7.44,36.09,0,0-35.63,115.72-39.7,152.4l-2.69.46s-.06-3.09-.08-8.51v0c-.19-38.19,1.57-191.39,41-191.61.38,0,.78,0,1.16,0C211.09,294.94,214.56,299.86,214.6,305.81Z" fill="#f8844bff"></path>
  <path d="M164.28,495.35v-.58s-.06-3.16-.08-8.52c-.22-45.05,2.13-191.93,41.54-192.15h.13l1.06,0c4.55.32,8.14,5.45,8.18,11.67h0c0,8.46-2.48,20.65-7.47,36.24C207.28,343.2,172,458.14,168,494.35l0,.38ZM205.72,295.1c-39.46.22-40.69,159.23-40.53,191.11,0,4.05.05,6.82.07,8l1.75-.3c4.23-36.72,39.31-151,39.67-152.12,5-15.49,7.46-27.58,7.42-35.93h0c0-5.61-3.29-10.4-7.25-10.68l-1,0Z" fill="#2f2e41"></path>
  <g opacity="0.2">
    <path d="M205.73,294.6c-7.79,15.19-23.58,56.79-32.67,122.58l-8.37,69C164.5,448,166.26,294.82,205.73,294.6Z"></path>
  </g>
  <path d="M169.62,325.58c.67,6.06.44,16.15-2.4,33,0,0-16.89,106.6-16.59,139.85l-2.07.61s-.34-2.76-.87-7.63v0c-3.77-34.27-17-171.93,13.93-175.15.3,0,.61-.05.91-.05C165.84,316.08,169,320.23,169.62,325.58Z" fill="#f8844bff"></path>
  <path d="M148.14,499.65l-.07-.59s-.35-2.76-.88-7.63c-3.72-33.73-14.26-145.63,6-170.71,2.42-3,5.25-4.7,8.4-5,.37,0,.66-.05.95-.05h.08c3.61,0,6.91,4.32,7.53,9.88h0c.83,7.59,0,18.73-2.4,33.1-.17,1.06-16.89,106.94-16.59,139.76v.38Zm14.45-183h-.06c-.27,0-.55,0-.83,0a11.48,11.48,0,0,0-7.76,4.67c-20,24.78-9.46,136.33-5.76,169.93.39,3.58.68,6,.81,7.07l1.14-.34c-.17-33.32,16.43-138.49,16.6-139.55,2.41-14.29,3.22-25.33,2.39-32.83h0C168.57,320.65,165.65,316.64,162.59,316.64Z" fill="#2f2e41"></path>
  <g opacity="0.2">
    <path d="M161.61,316.19C157,330.42,148.54,369,147.68,428.73v62.61C143.91,457.07,130.72,319.41,161.61,316.19Z"></path>
  </g>
  <path d="M88.29,348.15c.57,5.75,2.81,15.07,8.93,30.09,0,0,37.72,95.52,44.08,126.41l2.13.16s-.22-2.63-.68-7.24v0c-3.2-32.53-18-162.8-48.57-159.68-.29,0-.59.08-.88.14C90.06,338.59,87.8,343.07,88.29,348.15Z" fill="#f8844bff"></path>
  <path d="M144,505.36l-3.08-.24-.08-.37c-6.28-30.49-43.68-125.37-44.06-126.32-5.23-12.85-8.24-23-9-30.23h0c-.52-5.34,1.85-10,5.39-10.7l.82-.13h.11c3.25-.33,6.43.77,9.48,3.26,24.41,20,36.51,125.11,39.64,156.86.46,4.66.69,7.29.69,7.29Zm-2.26-1.18,1.17.09c-.09-1-.3-3.31-.63-6.65C139.13,465.93,127.08,361.11,103,341.4c-2.84-2.33-5.78-3.35-8.75-3h-.08c-.25,0-.51.07-.76.12-3,.56-5,4.88-4.59,9.62.71,7.11,3.7,17.19,8.89,29.95C98.06,379,135.19,473.22,141.71,504.18Z" fill="#2f2e41"></path>
  <g opacity="0.2">
    <path d="M94.17,337.85c7.37,12.28,23.24,46.37,36,101.61l12.53,58.07C139.54,465,124.75,334.73,94.17,337.85Z"></path>
  </g>
  <path d="M74,397.7c1.11,4.05,4,10.41,10.61,20.31,0,0,41.24,63.1,49.87,84.34l1.73-.18s-.47-1.86-1.37-5.1v0c-6.27-22.86-32.94-114.16-57.26-107.56l-.7.23C74.34,390.6,73,394.13,74,397.7Z" fill="#f8844bff"></path>
  <path d="M134.16,502.89l-.15-.35c-8.51-21-49.41-83.63-49.82-84.26-5.68-8.48-9.27-15.36-10.67-20.45h0c-1-3.82.36-7.6,3.19-8.59l.68-.22c24.53-6.64,50.53,80.9,57.93,107.89.9,3.27,1.38,5.13,1.38,5.13l.14.56ZM74.49,397.57c1.36,5,4.91,11.76,10.53,20.16.42.63,40.92,62.71,49.78,84.09l.78-.09c-.2-.77-.62-2.33-1.22-4.53-5.23-19.08-32.5-113.78-56.65-107.23-.24.07-.46.13-.66.21-2.31.81-3.46,4.13-2.56,7.39Z" fill="#2f2e41"></path>
  <g opacity="0.2">
    <path d="M77.58,389.48c7.33,7.76,24,29.94,40.58,67.71L134.84,497C128.57,474.18,101.9,382.88,77.58,389.48Z"></path>
  </g>
  <path d="M116.18,387.63c-.56,4.16-.42,11.13,1.8,22.84,0,0,13.21,74.22,12.83,97.14l1.66.51s.29-1.9.74-5.23v0c3.19-23.5,14.44-117.94-10.52-121.4l-.74-.07C119.28,381.23,116.68,384,116.18,387.63Z" fill="#f8844bff"></path>
  <path d="M132.88,508.77,130.3,508v-.38c.37-22.61-12.69-96.3-12.82-97-1.91-10-2.51-17.77-1.8-23h0c.53-3.92,3.31-6.83,6.3-6.66l.71.07c25.15,3.48,14.79,94.23,11,122-.45,3.37-.74,5.26-.74,5.26Zm-1.57-1.53.75.23c.12-.79.35-2.39.66-4.65,2.67-19.6,14.7-117.42-10.09-120.85l-.7-.07c-2.44-.19-4.79,2.45-5.25,5.8-.7,5.12-.09,12.75,1.79,22.68C118.6,411.12,131.54,484.11,131.31,507.24Z" fill="#2f2e41"></path>
  <g opacity="0.2">
    <path d="M122.7,381.47c3.7,10,10.34,36.94,10.79,78.2l-.27,43.2C136.41,479.37,147.66,384.93,122.7,381.47Z"></path>
  </g>
  <rect x="240.24" y="35.87" width="390.05" height="120.71" fill="#2f2e41"></rect>
  <path d="M630.79,157.08h-391V35.37h391Zm-390-1h389V36.37h-389Z" fill="#2f2e41"></path>
  <rect x="604" y="293.59" width="165.47" height="21.3" fill="#e6e7e8"></rect>
  <path d="M770,315.39H603.5v-22.3H770Zm-165.47-1H769v-20.3H604.5Z" fill="#2f2e41"></path>
  <path d="M217.4,378.27c-.15,4.19-1.88,11-7.49,22.24,0,0-34.35,71.08-38.88,93.74l-2.38.23s0-1.91.14-5.27v0c.83-23.68,6.35-118.61,41.1-118,.33,0,.68,0,1,0A7,7,0,0,1,217.4,378.27Z" fill="#f8844bff"></path>
  <path d="M168.14,495v-.56s0-1.92.14-5.29c1-27.88,6.83-118.53,41.27-118.53H210l.94,0a7.47,7.47,0,0,1,6.95,7.58h0c-.18,5.28-2.72,12.83-7.53,22.44-.34.7-34.37,71.27-38.84,93.62l-.07.36Zm41.51-123.38c-34.5,0-39.67,97.87-40.36,117.54-.08,2.31-.12,3.94-.13,4.73l1.45-.14c4.78-22.86,38.51-92.79,38.85-93.5,4.75-9.49,7.25-16.9,7.43-22h0a6.46,6.46,0,0,0-6-6.55c-.3,0-.6,0-.9,0Z" fill="#2f2e41"></path>
  <g opacity="0.2">
    <path d="M209.89,371.16c-7.25,9.27-22.23,34.78-31.94,75.39l-9.16,42.64C169.62,465.51,175.14,370.58,209.89,371.16Z"></path>
  </g>
  <path d="M189.25,498l-4.47,14.33a2.74,2.74,0,0,1-2.62,1.91H114.91a2.75,2.75,0,0,1-2.67-2.07l-3.57-14.32a2.75,2.75,0,0,1,2.65-3.41h75.31A2.75,2.75,0,0,1,189.25,498Z" fill="#2f2e41"></path>
  <path d="M182.16,514.78H114.91a3.25,3.25,0,0,1-3.16-2.45L108.18,498a3.25,3.25,0,0,1,3.14-4h75.31a3.25,3.25,0,0,1,3.09,4.21h0l-4.47,14.33A3.22,3.22,0,0,1,182.16,514.78ZM111.32,495a2.25,2.25,0,0,0-2.17,2.79l3.57,14.32a2.24,2.24,0,0,0,2.19,1.69h67.25a2.25,2.25,0,0,0,2.14-1.56l4.47-14.33a2.25,2.25,0,0,0-2.14-2.91Z" fill="#2f2e41"></path>
  <rect x="235.48" y="35.87" width="390.05" height="120.71" fill="#e6e7e8"></rect>
  <path d="M626,157.08H235V35.37H626Zm-390-1H625V36.37H236Z" fill="#2f2e41"></path>
  <rect x="242.36" y="39.57" width="375.3" height="110.1" fill="#fff"></rect>
  <path d="M618.15,150.17H241.86V39.07H618.15Zm-375.29-1H617.15V40.07H242.86Z" fill="#2f2e41"></path>
  <path d="M289,88A11.64,11.64,0,0,0,284.43,83a13,13,0,0,0-6.88-1.8,14,14,0,0,0-7.07,1.8,12.74,12.74,0,0,0-4.94,5.16,17.61,17.61,0,0,0,0,15.51,12.79,12.79,0,0,0,4.94,5.13,14,14,0,0,0,7.07,1.8,12.75,12.75,0,0,0,9-3.28,13.47,13.47,0,0,0,4.14-8.87H275.78v-4h20.16V98.2a18.71,18.71,0,0,1-2.9,8.46,17.92,17.92,0,0,1-6.51,6.08,18.21,18.21,0,0,1-9,2.23,18.9,18.9,0,0,1-9.51-2.45,17.84,17.84,0,0,1-6.8-6.8,20.65,20.65,0,0,1,0-19.7,17.85,17.85,0,0,1,6.8-6.83,18.89,18.89,0,0,1,9.51-2.44,19.13,19.13,0,0,1,10.57,3A17,17,0,0,1,294.81,88Z" fill="#2f2e41"></path>
  <path d="M322.12,114.65l-8.93-15.32h-5.91v15.32h-4.89V77.18h12.09a16,16,0,0,1,7.18,1.45A10.13,10.13,0,0,1,326,82.55,10.87,10.87,0,0,1,318.57,99l9.41,15.7ZM307.28,95.4h7.2q4,0,6-2a7,7,0,0,0,2-5.24,6.7,6.7,0,0,0-2-5.16q-2-1.83-6-1.83h-7.2Z" fill="#2f2e41"></path>
  <path d="M357.22,106.31H340.88l-3,8.34h-5.16l13.55-37.26h5.64l13.49,37.26h-5.16Zm-1.4-4-6.77-18.93-6.77,18.93Z" fill="#2f2e41"></path>
  <path d="M393.59,79.46A16.09,16.09,0,0,1,400.47,86a20.11,20.11,0,0,1,2.39,10,19.91,19.91,0,0,1-2.39,10,15.76,15.76,0,0,1-6.88,6.46A23.69,23.69,0,0,1,383,114.65H371.31V77.18H383A23.17,23.17,0,0,1,393.59,79.46Zm.46,27.31q3.81-3.84,3.81-10.78T394,85.08q-3.84-3.93-11-3.92H376.2v29.45H383Q390.23,110.61,394.05,106.77Z" fill="#2f2e41"></path>
  <path d="M414.1,77.18v23.7q0,5,2.44,7.42a10.69,10.69,0,0,0,13.55,0q2.45-2.42,2.45-7.42V77.18h4.89v23.65a15.37,15.37,0,0,1-1.88,7.88,11.8,11.8,0,0,1-5.08,4.75,17.3,17.3,0,0,1-14.36,0,11.62,11.62,0,0,1-5.05-4.75,15.47,15.47,0,0,1-1.85-7.88V77.18Z" fill="#2f2e41"></path>
  <path d="M467.75,106.31H451.4l-3,8.34h-5.16l13.55-37.26h5.65l13.49,37.26h-5.16Zm-1.4-4-6.77-18.93-6.78,18.93Z" fill="#2f2e41"></path>
  <path d="M504.89,77.18v4H494.68v33.49h-4.89V81.16H479.52v-4Z" fill="#2f2e41"></path>
  <path d="M515.81,77.18v37.47h-4.9V77.18Z" fill="#2f2e41"></path>
  <path d="M531.61,112.58a17.92,17.92,0,0,1-6.8-6.83,20.71,20.71,0,0,1,0-19.73,17.92,17.92,0,0,1,6.8-6.83,19.87,19.87,0,0,1,19.08,0,17.79,17.79,0,0,1,6.78,6.8,21.06,21.06,0,0,1,0,19.79,17.79,17.79,0,0,1-6.78,6.8,19.87,19.87,0,0,1-19.08,0ZM548.19,109a12.86,12.86,0,0,0,4.95-5.22,18.06,18.06,0,0,0,0-15.72,13,13,0,0,0-4.92-5.19,14.67,14.67,0,0,0-14.19,0A13,13,0,0,0,529.11,88a18.06,18.06,0,0,0,0,15.72,12.86,12.86,0,0,0,4.95,5.22,14.55,14.55,0,0,0,14.13,0Z" fill="#2f2e41"></path>
  <path d="M595.85,114.65H591L571.28,84.81v29.84h-4.89V77.12h4.89L591,106.91V77.12h4.89Z" fill="#2f2e41"></path>
  <rect x="53.59" y="633.38" width="758.57" height="14.14" rx="7.07" fill="#2f2e41"></rect>
  <polygon points="433.67 611.77 434.88 632.44 436.58 632.44 436.7 611.77 433.67 611.77" fill="#2f2e41"></polygon>
  <path d="M437.08,632.94h-2.67l-1.27-21.67h4.06Zm-1.73-1h.73l.11-19.67h-2Z" fill="#2f2e41"></path>
  <polygon points="419.08 611.65 420.29 632.32 421.99 632.32 422.11 611.65 419.08 611.65" fill="#2f2e41"></polygon>
  <path d="M422.49,632.81h-2.67l-1.27-21.66h4.06Zm-1.73-1h.73l.11-19.66h-2Z" fill="#2f2e41"></path>
  <path d="M473.67,632.67s-22.62.86-23.59.62c-7.9-2.07-8.51-19.09-8.51-19.09-1-4.87-4.87-2.43-4.87-2.43h-3c-3-4.38-2.32-11.68-2.32-11.68.85-5.23,6.45-2.67,6.45-2.67,7.54,2.45,9.41,13,9.84,17a13.17,13.17,0,0,0,1.11,4.23c4.13,8.81,13.73,6,13.73,6C474.27,625.26,473.67,632.67,473.67,632.67Z" fill="#f8844bff"></path>
  <path d="M451.43,633.82a10.27,10.27,0,0,1-1.47-.05c-8.17-2.13-8.87-18.84-8.9-19.55a3.08,3.08,0,0,0-1.5-2.41,3.26,3.26,0,0,0-2.6.39l-.12.07H433.4l-.14-.21c-3.12-4.48-2.44-11.71-2.41-12a4.22,4.22,0,0,1,2-3.28c2.13-1.14,5,.14,5.12.2,7.71,2.5,9.65,13,10.12,17.36a13,13,0,0,0,1.07,4.07c3.9,8.31,12.77,5.89,13.14,5.78l.08,0h.09c4.56.24,7.88,1.5,9.85,3.75a7,7,0,0,1,1.81,4.82l0,.44-.44,0C470.45,633.3,456.15,633.82,451.43,633.82Zm-12.66-23.16a2.92,2.92,0,0,1,1.18.23,4,4,0,0,1,2.1,3.21c0,.25.71,16.76,8.15,18.7.85.15,14-.27,23-.61a6.26,6.26,0,0,0-1.57-3.65c-1.78-2-4.83-3.15-9.06-3.38-1,.24-10.19,2.29-14.23-6.35a13.32,13.32,0,0,1-1.16-4.38c-.35-3.28-2.08-14.13-9.5-16.54-.08,0-2.59-1.15-4.28-.24a3.27,3.27,0,0,0-1.52,2.52s-.64,6.9,2.09,11.1h2.63A4.86,4.86,0,0,1,438.77,610.66Z" fill="#2f2e41"></path>
  <path d="M402.17,622.47a10.75,10.75,0,0,0-7.26,9.79,1,1,0,0,0,.94,1h20.58a3.6,3.6,0,0,0,3.3-2.1c.79-1.73,1.54-4.8,1.29-10.06,0,0-.37-7.3,1.21-10a11.83,11.83,0,0,0-3.65-14.71Z" fill="#f8844bff"></path>
  <path d="M416.43,633.79H395.85a1.42,1.42,0,0,1-1.05-.46,1.5,1.5,0,0,1-.39-1.11,11.36,11.36,0,0,1,7.43-10.17l16.62-26.34.44.35a12.4,12.4,0,0,1,3.77,15.33c-1.49,2.54-1.16,9.64-1.15,9.71.26,5.5-.58,8.64-1.33,10.3A4.12,4.12,0,0,1,416.43,633.79Zm2.27-36.59-16.21,25.69-.18.06a10.16,10.16,0,0,0-6.9,9.34.48.48,0,0,0,.12.36.45.45,0,0,0,.32.14h20.58a3.12,3.12,0,0,0,2.85-1.8c.7-1.56,1.49-4.54,1.24-9.84,0-.3-.36-7.47,1.28-10.25A11.18,11.18,0,0,0,418.7,597.2Z" fill="#2f2e41"></path>
  <path d="M462.48,624.65s-9.6,2.76-13.73-6a13.17,13.17,0,0,1-1.11-4.23c-.43-4-2.3-14.5-9.84-17v-2.56h12.4S448.37,618.21,462.48,624.65Z" fill="#fff"></path>
  <path d="M459.11,625.54a11.28,11.28,0,0,1-10.81-6.73,13.32,13.32,0,0,1-1.16-4.38c-.35-3.28-2.08-14.13-9.5-16.54l-.34-.11v-3.42h13.44l0,.54c0,.23-1.63,23.07,12,29.3l1.23.56-1.3.37A14.41,14.41,0,0,1,459.11,625.54ZM438.3,597.06c7.48,2.72,9.37,12.94,9.83,17.26a13,13,0,0,0,1.07,4.07c3,6.45,9.06,6.43,11.77,6.05-11.9-6.72-11.49-25.56-11.3-29.08H438.3Z" fill="#2f2e41"></path>
  <path d="M409.34,594.62s-5.71,24.81-7.17,27.85h13s4.62-3.77,3.53-19.46l-.25-8.51Z" fill="#fff"></path>
  <path d="M415.36,623h-14l.34-.72c1.42-3,7.08-27.49,7.14-27.74l.08-.38,10-.14.26,9c1.09,15.74-3.52,19.69-3.71,19.85Zm-12.45-1H415c.68-.73,4.19-5.18,3.23-18.92l-.23-8-8.24.11C409,598.18,404.59,617.28,402.91,622Z" fill="#2f2e41"></path>
  <polygon points="404.69 578.14 407.38 594.39 422.1 594.39 421.6 575.74 404.69 578.14" fill="#2f2e41"></polygon>
  <path d="M422.62,594.89H407l-2.84-17.18,18-2.54Zm-14.82-1h13.79l-.48-17.58-15.84,2.25Z" fill="#2f2e41"></path>
  <path d="M452.14,595.23l-16.9-.49.85-24.44s18.85,2.07,18.36,2.44S452.14,595.23,452.14,595.23Z" fill="#2f2e41"></path>
  <path d="M452.6,595.74l-17.88-.51.89-25.48.54.06c18.59,2,18.68,2.36,18.79,2.78l.09.32-.17.14c-.4,1.38-1.56,14.26-2.22,22.22Zm-16.84-1.48,15.92.46c1.29-15.52,1.88-20.2,2.2-21.67-2-.42-11.17-1.51-17.31-2.19Z" fill="#2f2e41"></path>
  <polygon points="504.43 147.99 510.56 207.14 517.88 206.58 511.87 146.83 504.43 147.99" fill="#f8844bff"></polygon>
  <path d="M510.11,207.68l-.05-.49-6.18-59.62,8.44-1.31,6.1,60.78ZM505,148.41l6,58.2,6.32-.49-5.9-58.71Z" fill="#2f2e41"></path>
  <path d="M517.5,288.33a96.63,96.63,0,0,0-2.15-21.49,58.63,58.63,0,0,0-2.17-7.57c-.35-.95-.71-1.9-1.12-2.82l-10.87-22.31-1.84,2.06L494,242.14l-18.21,20.4a8.5,8.5,0,0,1-7.36,2.75L439,261.66a17.39,17.39,0,0,1-8.11-3s-8.29,14.22-28.26.77c0,0-17.16.24-25.6,9.06l-24.38,39.38s-10.49,15.38-3.37,31.5l21,42.14a2.53,2.53,0,0,0,4,.74,8.85,8.85,0,0,0,1.47-1.81s-2.34,50.72,9.95,88.73a56.56,56.56,0,0,1,2.69,14.29l4.37,77.27.65,11.31.07,1.23a4.3,4.3,0,0,0,2.14,3.54,6.85,6.85,0,0,0,3.52.78,2.56,2.56,0,0,1,1.53.45,15.23,15.23,0,0,0,17.51-.2,4.34,4.34,0,0,1,3.15-.71c2.61.42,7.57.65,9.89-3.12a2.93,2.93,0,0,1,2.95-1.38h.05l.17,0a2.76,2.76,0,0,1,2.09,2.06l0,.17s1.5,5.24,18.38,1.49a20,20,0,0,1,9-.94s0-1.3.1-3.59c.05-2.5.13-6.17.23-10.6.47-21.43,1.26-60.73,1-71.87l-.75-60.76s-2.24-41.82-6.75-57.75l-8.44-37.58a12.8,12.8,0,0,1,.25-6.53c1.75-5.72,5.35-17.54,6.88-22.84,0,0,3.56,18.75,33.38,18l4.15.12,19.4.6,13.57.4S516,310.84,517.5,288.33ZM384.89,340.58l-3,2.94a.07.07,0,0,1-.11,0l-10.39-14.85a7,7,0,0,1-.88-3.53,12.31,12.31,0,0,1,1.87-6.64c2.4-3.92,7.36-11.94,7.81-12.06l8.21,20.44a1.21,1.21,0,0,1,.05.18A13.44,13.44,0,0,1,384.89,340.58Z" fill="#f8844bff"></path>
  <path d="M409.31,581.18a16.42,16.42,0,0,1-8.94-2.76,2.1,2.1,0,0,0-1.24-.36,7.36,7.36,0,0,1-3.77-.84,4.79,4.79,0,0,1-2.4-4l-5.09-89.81a56.27,56.27,0,0,0-2.66-14.16c-11-33.9-10.29-78.38-10-87.31a6.57,6.57,0,0,1-.59.59,3,3,0,0,1-2.6.76,3,3,0,0,1-2.16-1.63l-21-42.14c-7.17-16.22,3.29-31.86,3.4-32l24.43-39.45c8.49-8.86,25.25-9.2,25.95-9.21h.16l.13.09c7.09,4.77,13.45,6.56,18.9,5.32a14.25,14.25,0,0,0,8.65-5.93l.28-.47.44.32a17,17,0,0,0,7.86,2.93l29.47,3.64a8,8,0,0,0,6.92-2.6l25.86-28.94,11.2,23c.45,1,.83,2,1.14,2.85a60.59,60.59,0,0,1,2.19,7.64A98.58,98.58,0,0,1,518,288.35h0c-1.47,22,9.14,34.21,9.24,34.33l.77.87-38.27-1.16c-24.62.61-31.62-12.14-33.35-16.76-1.67,5.65-4.68,15.53-6.42,21.25a12.13,12.13,0,0,0-.24,6.27l8.44,37.58c4.46,15.77,6.74,57.41,6.76,57.83l.75,60.78c.25,10.3-.4,44.78-1,71.89L464.35,576l-.54-.05a19.38,19.38,0,0,0-8.75.91c-17.22,3.83-19-1.59-19.05-1.83l0-.2a2.23,2.23,0,0,0-1.71-1.67l-.26,0a2.45,2.45,0,0,0-2.37,1.16c-2.46,4-7.57,3.81-10.4,3.36a3.8,3.8,0,0,0-2.79.62A16,16,0,0,1,409.31,581.18Zm-10.12-4.12a3.15,3.15,0,0,1,1.74.53,14.8,14.8,0,0,0,16.95-.2,4.88,4.88,0,0,1,3.51-.78c2.58.41,7.24.59,9.39-2.89a3.43,3.43,0,0,1,3.45-1.62l.24,0a3.24,3.24,0,0,1,2.47,2.43l0,.19s1.75,4.66,17.78,1.11a19.87,19.87,0,0,1,8.62-1l.31-13.67c.59-27.1,1.24-61.56,1-71.84l-.75-60.77c0-.39-2.29-41.92-6.73-57.62l-8.45-37.6a13.32,13.32,0,0,1,.26-6.78c1.93-6.31,5.38-17.66,6.88-22.84l.58-2,.4,2c0,.18,3.87,18.35,32.87,17.59l36.07,1.09c-2.38-3.18-10.08-15.07-8.81-34.18A96.91,96.91,0,0,0,514.86,267a59.25,59.25,0,0,0-2.14-7.51c-.31-.84-.69-1.82-1.12-2.78L501.07,235,476.2,262.87a9,9,0,0,1-7.79,2.92L439,262.16a17.83,17.83,0,0,1-7.91-2.82,15.24,15.24,0,0,1-9,5.94c-5.71,1.31-12.29-.5-19.57-5.37-1.72,0-17.27.77-25.06,8.86L353.1,308.1c-.12.17-10.27,15.36-3.34,31l21,42.12a2,2,0,0,0,3.2.59,8.72,8.72,0,0,0,1.39-1.7l1-1.62-.09,1.91c0,.5-2.2,51.06,9.93,88.55a57.37,57.37,0,0,1,2.71,14.41L394,573.21a3.8,3.8,0,0,0,1.88,3.13,6.18,6.18,0,0,0,3.26.72ZM382.07,344h-.29a.58.58,0,0,1-.41-.24L371,329a7.44,7.44,0,0,1-1-3.81,12.68,12.68,0,0,1,1.95-6.91c7.41-12.11,7.82-12.21,8.11-12.28l.42-.11,8.44,21.07a13.87,13.87,0,0,1-3.68,14ZM380,307.38c-.89,1.24-3.12,4.67-7.22,11.37a11.83,11.83,0,0,0-1.8,6.37,6.38,6.38,0,0,0,.8,3.27l10.1,14.42,2.64-2.59.35.36-.35-.36a12.9,12.9,0,0,0,3.43-13l-.05-.14Z" fill="#2f2e41"></path>
  <polygon points="388.6 208.39 364.34 202.17 410.33 171.68 460.86 190.04 437.76 201.96 388.6 208.39" fill="#f8844bff"></polygon>
  <path d="M388.57,208.9l-.09,0-25.35-6.51,47.13-31.24.24.08L462.1,190l-24.28,12.49Zm-23-6.94,23.08,5.92,49-6.41,22-11.35L410.4,172.24Z" fill="#2f2e41"></path>
  <ellipse cx="439.74" cy="228.36" rx="3.97" ry="6.51" fill="#fff"></ellipse>
  <path d="M439.74,235.37c-2.5,0-4.47-3.08-4.47-7s2-7,4.47-7,4.48,3.08,4.48,7S442.25,235.37,439.74,235.37Zm0-13c-1.88,0-3.47,2.75-3.47,6s1.59,6,3.47,6,3.48-2.75,3.48-6S441.63,222.35,439.74,222.35Z" fill="#2f2e41"></path>
  <ellipse cx="393.4" cy="233.88" rx="3.97" ry="6.51" transform="translate(-54.11 138) rotate(-18.64)" fill="#fff"></ellipse>
  <path d="M394.67,240.68a4.42,4.42,0,0,1-2.78-1.16,10.16,10.16,0,0,1-3.11-9.22,3.9,3.9,0,0,1,2.38-3.07c2.37-.8,5.22,1.49,6.48,5.22h0a9.47,9.47,0,0,1,.38,5,3.9,3.9,0,0,1-2.38,3.07A3,3,0,0,1,394.67,240.68Zm-2.55-12.6a2,2,0,0,0-.64.1,3,3,0,0,0-1.73,2.34,9.2,9.2,0,0,0,2.78,8.23,2.53,2.53,0,0,0,4.51-1.52,8.39,8.39,0,0,0-.35-4.46h0C395.77,230,393.79,228.08,392.12,228.08Z" fill="#2f2e41"></path>
  <rect x="395.83" y="199.12" width="43.03" height="58.04" rx="21.52" fill="#fff"></rect>
  <path d="M417.34,257.66a22,22,0,0,1-22-22v-15a22,22,0,1,1,44,0v15A22,22,0,0,1,417.34,257.66Zm0-58a21,21,0,0,0-21,21v15a21,21,0,1,0,42,0v-15A21,21,0,0,0,417.34,199.62Z" fill="#2f2e41"></path>
  <path d="M396.28,239.68a20.88,20.88,0,0,0,11.1,15.07c-.79,4.76-6.54,4.76-6.54,4.76-1.5.1-3.1.27-4.79.53a59.66,59.66,0,0,0-7,1.52c-1.76-7-3.76-16.64-2.83-27.93a168.8,168.8,0,0,1,2.53-18.13,138.3,138.3,0,0,1,28.94-6.34s-4.16,7.73-18.83,11.1c0,0-.34,11.42-3.26,14.58,0,0-.42-5.63-4.28-7.13,0,0-3.52,1.06-1.69,7.44,0,0,2,5.91,5.85,4.9Z" fill="#2f2e41"></path>
  <path d="M388.69,262.19l-.13-.5c-1.91-7.69-3.75-17-2.83-28.1a170.21,170.21,0,0,1,2.53-18.19l.06-.27.26-.1a140.19,140.19,0,0,1,29.06-6.37l.93-.08-.44.82c-.17.32-4.37,7.84-18.79,11.26-.08,2.07-.63,11.56-3.37,14.52l-.78.84-.09-1.14s-.43-5.16-3.79-6.63c-.59.28-2.66,1.67-1.2,6.76,0,0,1.91,5.43,5.24,4.55l1.32-.6.1.64a20.47,20.47,0,0,0,10.82,14.69l.35.16-.07.38c-.85,5.12-7,5.18-7,5.18-1.55.1-3.15.28-4.72.52a56.72,56.72,0,0,0-6.93,1.52Zm.49-46.31a170.77,170.77,0,0,0-2.46,17.79c-.88,10.68.84,19.76,2.69,27.27a58.88,58.88,0,0,1,6.56-1.4c1.6-.24,3.23-.42,4.84-.53.24,0,5.08-.06,6-4A21.58,21.58,0,0,1,395.9,240.4l-.22.1c-4.31,1.15-6.43-4.93-6.52-5.19-2-6.8,1.85-8,2-8.08l.17,0,.16.06c3,1.16,4,4.45,4.41,6.29,2.15-3.9,2.45-13.18,2.45-13.28v-.39l.38-.09c11.37-2.61,16.36-7.93,17.92-10A139.08,139.08,0,0,0,389.18,215.88Z" fill="#2f2e41"></path>
  <path d="M428.75,253.85s0,3.39,2.16,4.78c0,0-8.49,14.37-28.26.77,0,0,4.68-1.28,4.73-4.65A22.28,22.28,0,0,0,428.75,253.85Z" fill="#fff"></path>
  <path d="M418.28,265.76c-4.84,0-10.17-2-15.91-5.94l-.89-.61,1-.29s4.31-1.22,4.36-4.18v-.84l.74.41a21.92,21.92,0,0,0,20.86-.9l.76-.44v.87s0,3.15,1.93,4.37l.41.26-.25.42a15.34,15.34,0,0,1-9.49,6.48A16.27,16.27,0,0,1,418.28,265.76Zm-14.53-6.22c6.63,4.37,12.63,6,17.86,4.86a14.68,14.68,0,0,0,8.62-5.65,6.4,6.4,0,0,1-1.92-4.08,23,23,0,0,1-20.51.84C407.34,257.75,405.08,259,403.75,259.54Z" fill="#2f2e41"></path>
  <path d="M407.38,254.75a4.38,4.38,0,0,1-2.11,3.37s13.07,7.36,19.88-2.61C425.15,255.51,417.46,259.7,407.38,254.75Z" fill="#2f2e41"></path>
  <path d="M436.39,245.94A17.89,17.89,0,0,1,439,261.66s-10.74-.86-10.27-7.81C428.75,253.85,432.8,252,436.39,245.94Z" fill="#2f2e41"></path>
  <path d="M439.38,262.19l-.4,0c-.11,0-11.22-1-10.73-8.35l0-.29.27-.13s4-1.91,7.42-7.7l.37-.62.45.56a18.23,18.23,0,0,1,2.72,16.18Zm-10.14-8c-.11,5.41,7.58,6.72,9.43,7a17.46,17.46,0,0,0-2.26-14.27A21.07,21.07,0,0,1,429.24,254.16Z" fill="#2f2e41"></path>
  <path d="M438.18,209s-20.91-3.07-49.43,6.48l.06-18s24.47-17.94,48.63-3.38Z" fill="#f8844bff"></path>
  <path d="M388.25,216.2l.06-18.93.21-.15c.24-.18,25-18,49.18-3.4l.23.14.78,15.75-.6-.09c-.21,0-21.13-2.94-49.2,6.46Zm1.06-18.41-.06,17c25.33-8.35,44.79-6.75,48.4-6.35l-.7-14C414.59,181.16,391.71,196.14,389.31,197.79Z" fill="#2f2e41"></path>
  <path d="M438.18,209s4.53,8.34.63,16.14a18.7,18.7,0,0,0-3.06-8.33s-3.48-5.17-3.06-8.23C432.69,208.6,435.33,208.71,438.18,209Z" fill="#2f2e41"></path>
  <path d="M438.47,227l-.16-1.75a18.21,18.21,0,0,0-3-8.08c-.16-.24-3.59-5.38-3.15-8.6l.06-.44h.45s2.69.11,5.52.43l.26,0,.13.23c.19.34,4.61,8.65.64,16.6Zm-5.31-17.83c0,2.88,3,7.37,3,7.42a18,18,0,0,1,2.86,6.82c2.24-6.3-.56-12.61-1.18-13.88C435.87,209.28,434,209.17,433.16,209.13Z" fill="#2f2e41"></path>
  <path d="M513.3,323.12h0l-19.39-.6a.5.5,0,0,1-.49-.51,186.39,186.39,0,0,1,5.24-38.47,70.31,70.31,0,0,0-5.05-41.18.49.49,0,0,1,.08-.55l5.31-5.95a.45.45,0,0,1,.39-.16.51.51,0,0,1,.38.2C511,251.1,512,284.61,512,285c-1.65,18.33.41,31.39,1.78,37.56a.49.49,0,0,1-.11.42A.47.47,0,0,1,513.3,323.12Zm-18.88-1.58,18.25.56c-1.37-6.46-3.26-19.38-1.66-37.18,0-.28-1-32.75-11.7-47.93l-4.68,5.24a71.42,71.42,0,0,1,5,41.5.08.08,0,0,0,0,0A185.72,185.72,0,0,0,494.42,321.54Zm4.7-37.9h0Z" fill="#2f2e41"></path>
  <path d="M520.88,247.83l-7.7,11.44c-.35-.95-.71-1.9-1.12-2.82l-10.87-22.31,1.3-1.49Z" fill="#fff"></path>
  <path d="M513.05,260.36l-.33-.92c-.31-.84-.69-1.82-1.12-2.78l-11-22.6,1.85-2.11,19.11,15.78Zm-11.27-26.14,10.73,22c.29.66.56,1.32.8,1.94l6.9-10.25-17.66-14.59Z" fill="#2f2e41"></path>
  <path d="M526.87,323S516,310.84,517.5,288.33a96.63,96.63,0,0,0-2.15-21.49l10,23C533.25,317.21,526.87,323,526.87,323Z" fill="#f8844bff"></path>
  <path d="M526.83,323.73l-.33-.37c-.11-.13-11-12.61-9.5-35.06A97,97,0,0,0,514.86,267l.95-.31,10,23c7.89,27.42,1.65,33.51,1.38,33.75ZM516.7,271.19a100.34,100.34,0,0,1,1.3,17.16c-1.31,19.62,7,31.44,8.86,33.87,1.16-1.78,4.58-9.48-2-32.24Z" fill="#2f2e41"></path>
  <path d="M503.06,233.21a13.42,13.42,0,0,0,5.54-9.48,16,16,0,0,0-.69-7.06,33.21,33.21,0,0,1-1.29-10.84l.38-9.56s.37-2.63,2.25-3.38l1.31,14.25,7.31-.56-.22-2.46a3.7,3.7,0,0,0-1.08-2.27c-.42-.42-.66-1.06.23-1.83a1.47,1.47,0,0,0,.51-1.1h0a1.47,1.47,0,0,0-1.58-1.46c-1.42.12-3.29-.08-3.29-1.94,0,0,0-1.71,2.63-1.83a1.79,1.79,0,0,0,1.74-1.89v0a1.76,1.76,0,0,0-.84-1.38c-1-.63-2.63-1.93-1.85-3.51,0,0,.94-1.69,4.13.19a7.48,7.48,0,0,1,3,6s-1.12,3.19.56,5.06c0,0,7,3,6.07,12.67a7.94,7.94,0,0,1-1.21,3.45,29.13,29.13,0,0,1-3.84,4.89,8.2,8.2,0,0,0-2.13,3.93L516,243.71Z" fill="#fff"></path>
  <path d="M516.31,244.6,502.2,233.15l.6-.37a13.09,13.09,0,0,0,5.31-9.12,15.49,15.49,0,0,0-.68-6.84,34.06,34.06,0,0,1-1.31-11l.38-9.57c0-.17.44-3,2.56-3.82l.63-.25L511,206.61l6.32-.49-.18-2a3.22,3.22,0,0,0-.93-2,1.59,1.59,0,0,1-.53-1.18,1.94,1.94,0,0,1,.78-1.37,1,1,0,0,0,.34-.73,1,1,0,0,0-.3-.7,1,1,0,0,0-.74-.26,4.07,4.07,0,0,1-3.14-.73,2.22,2.22,0,0,1-.69-1.71s0-2.19,3.11-2.33a1.29,1.29,0,0,0,.94-.44,1.23,1.23,0,0,0,.32-.91,1.26,1.26,0,0,0-.6-1c-2-1.24-2.74-2.75-2-4.16a1.93,1.93,0,0,1,1.22-.88,4.78,4.78,0,0,1,3.6.86,7.89,7.89,0,0,1,3.25,6.45l0,.14s-1,2.85.4,4.5c.92.45,7.18,3.89,6.26,13.12a8.69,8.69,0,0,1-1.28,3.66,29.45,29.45,0,0,1-3.91,5,7.7,7.7,0,0,0-2,3.69Zm-12.42-11.36,11.8,9.57L520.21,223a8.75,8.75,0,0,1,2.26-4.17,28.63,28.63,0,0,0,3.78-4.81,7.59,7.59,0,0,0,1.13-3.23c.91-9.16-5.49-12-5.77-12.16l-.17-.12c-1.73-1.93-.86-5-.69-5.49a7.06,7.06,0,0,0-2.79-5.5c-2.62-1.54-3.37-.4-3.4-.35-.6,1.19.79,2.29,1.67,2.84a2.26,2.26,0,0,1,.51,3.44,2.34,2.34,0,0,1-1.65.77c-2.05.09-2.15,1.21-2.15,1.33a1.25,1.25,0,0,0,.37,1,3.27,3.27,0,0,0,2.38.47,1.94,1.94,0,0,1,1.49.51,1.95,1.95,0,0,1-.06,2.92,1.1,1.1,0,0,0-.43.65.7.7,0,0,0,.23.45,4.16,4.16,0,0,1,1.23,2.57l.27,3-8.31.64-1.29-14a4.89,4.89,0,0,0-1.33,2.62l-.37,9.51a32.94,32.94,0,0,0,1.26,10.67,16.42,16.42,0,0,1,.72,7.28A14.26,14.26,0,0,1,503.89,233.24Z" fill="#2f2e41"></path>
  <polygon points="507.83 174.96 514.7 174.71 514.94 178 508.07 178.12 507.83 174.96" fill="#2f2e41"></polygon>
  <path d="M507.61,178.63l-.32-4.16,7.87-.27.32,4.29Zm.76-3.19.17,2.17,5.87-.1-.17-2.28Z" fill="#2f2e41"></path>
  <path d="M507.33,175s-1.5-3.65-3.73-5.19a2.71,2.71,0,0,0-3.86,3.62c.73,1.28,2.31,2.72,5.59,3.94,0,0-3.81,2.23-4.62,5.15a2.75,2.75,0,0,0,3.6,3.33c1.26-.43,2.64-1.54,3.57-4.11Zm-2.16.41c-.49.45-1.75-.11-2.8-1.26s-1.51-2.45-1-2.91,1.75.11,2.81,1.26S505.67,174.91,505.17,175.37Zm.1,7.27c-.93,1.26-2.12,2-2.66,1.55s-.22-1.74.71-3,2.12-1.94,2.66-1.54S506.2,181.39,505.27,182.64Z" fill="#2f2e41"></path>
  <path d="M503.36,186.48a3.27,3.27,0,0,1-2.24-.89,3.18,3.18,0,0,1-.89-3.24c.62-2.24,2.81-4,4-4.91a9.86,9.86,0,0,1-4.95-3.8,3.24,3.24,0,0,1,.62-4,3.15,3.15,0,0,1,4-.24c2.32,1.61,3.84,5.25,3.91,5.41l0,.15.56,6.85,0,.11c-.85,2.32-2.15,3.8-3.87,4.41A3.66,3.66,0,0,1,503.36,186.48Zm-1.3-16.72a2.24,2.24,0,0,0-1.89,3.38c.83,1.46,2.63,2.71,5.33,3.72l1,.36-.91.54s-3.64,2.17-4.39,4.86a2.21,2.21,0,0,0,.61,2.24,2.27,2.27,0,0,0,2.35.48,5.69,5.69,0,0,0,3.23-3.71l-.54-6.55c-.21-.5-1.61-3.57-3.52-4.9A2.18,2.18,0,0,0,502.06,169.76Zm.93,15a1.14,1.14,0,0,1-.68-.21c-.9-.67-.38-2.37.61-3.7s2.45-2.32,3.36-1.65c.25.19.63.66.38,1.7a6.33,6.33,0,0,1-2.61,3.53A2.11,2.11,0,0,1,503,184.8ZM505.6,180a3.26,3.26,0,0,0-1.88,1.46c-.91,1.23-1,2.19-.81,2.3s.27,0,.63-.19a4.58,4.58,0,0,0,1.33-1.26h0a4.89,4.89,0,0,0,.82-1.63c.1-.42,0-.63,0-.66S505.64,180,505.6,180Zm-.88-4a4.31,4.31,0,0,1-2.72-1.59c-1.12-1.21-1.82-2.85-1-3.61s2.4.08,3.52,1.29,1.81,2.85,1,3.62h0A1.14,1.14,0,0,1,504.72,176Zm-2.91-4.49a.17.17,0,0,0-.12,0c-.14.12,0,1.07,1,2.2s2,1.35,2.11,1.23,0-1.08-1-2.2A3.42,3.42,0,0,0,501.81,171.54Z" fill="#2f2e41"></path>
  <path d="M464.19,561.23c-.1,4.43-.18,8.1-.23,10.6l-29,.9s-.23,0-.62-.09l-.17,0h-.05a5.88,5.88,0,0,1-3.26-1.64,1.18,1.18,0,0,0-.92-.42H417.25a1.22,1.22,0,0,0-1.22,1.22v1.46a1.22,1.22,0,0,1-1.21,1.22H401.31a1.22,1.22,0,0,1-1.21-1.22h0a1.22,1.22,0,0,0-1.22-1.21h-5.49l-.65-11.31,5.78-.1a1.2,1.2,0,0,1,1.22,1.2v.5a1.19,1.19,0,0,0,1.19,1.2h12.33a1.19,1.19,0,0,0,1.19-1.2v-1.38a1.19,1.19,0,0,1,1.2-1.19H431a1.19,1.19,0,0,1,1.19,1.19h0a1.2,1.2,0,0,0,1.23,1.2Z" fill="#fff"></path>
  <path d="M414.82,574.93H401.31a1.71,1.71,0,0,1-1.71-1.71.71.71,0,0,0-.72-.71h-6l-.7-12.3,6.29-.11a1.8,1.8,0,0,1,1.22.49,1.7,1.7,0,0,1,.5,1.21v.5a.71.71,0,0,0,.7.7h12.33a.7.7,0,0,0,.69-.7v-1.38a1.7,1.7,0,0,1,1.7-1.69H431a1.69,1.69,0,0,1,1.69,1.69.7.7,0,0,0,.72.7l31.29-.91-.27,11.6-29.43.92a5,5,0,0,1-.73-.1l-.33-.07a5.89,5.89,0,0,1-3.46-1.79A.66.66,0,0,0,430,571H417.25a.72.72,0,0,0-.72.72v1.46A1.71,1.71,0,0,1,414.82,574.93Zm-21-3.42h5a1.72,1.72,0,0,1,1.72,1.71.71.71,0,0,0,.71.71h13.51a.71.71,0,0,0,.71-.71v-1.46a1.72,1.72,0,0,1,1.72-1.72H430a1.65,1.65,0,0,1,1.31.62,5.19,5.19,0,0,0,2.93,1.44l.26,0c.34.06.56.08.57.08l28.43-.89.21-9.6-30.23.88a1.75,1.75,0,0,1-1.23-.48,1.69,1.69,0,0,1-.52-1.22.69.69,0,0,0-.69-.69H415.65a.7.7,0,0,0-.7.69v1.38a1.7,1.7,0,0,1-1.69,1.7H400.93a1.71,1.71,0,0,1-1.7-1.7v-.5a.7.7,0,0,0-.2-.5.9.9,0,0,0-.5-.2l-5.26.09Z" fill="#2f2e41"></path>
  <path d="M375.3,361.58s11.6,6.33,14.48-.39c0,0,4-.39,2.5-3.08,0,0,5.38-1.15.77-4.41,0,0,3.84-3.08-5.77-6.15l-1.47-.67a.57.57,0,0,1-.27-.8,4.78,4.78,0,0,0,.53-3.31.32.32,0,0,0-.54-.16c-.89.91-3.16,2.89-5.55,2.44C380,345.05,374.53,350.62,375.3,361.58Z" fill="#fff"></path>
  <path d="M384.48,364.78c-4.3,0-9.17-2.63-9.42-2.77l-.24-.13,0-.27c-.78-11.05,4.6-16.68,4.83-16.91l.18-.19.26.05c2.17.4,4.29-1.48,5.11-2.3a.82.82,0,0,1,.83-.21.79.79,0,0,1,.55.63,5.26,5.26,0,0,1-.59,3.65l-.16.55.21-.46,1.47.67c4.16,1.33,6.46,2.9,6.78,4.64a2.45,2.45,0,0,1-.48,1.9c1.25,1,1.77,1.91,1.59,2.8-.23,1.14-1.58,1.74-2.4,2a2,2,0,0,1-.06,1.65c-.57,1.09-2.13,1.45-2.8,1.56a5.16,5.16,0,0,1-3.07,2.74A7.77,7.77,0,0,1,384.48,364.78Zm-8.7-3.52c1.26.65,7.18,3.49,10.94,2.18a4.15,4.15,0,0,0,2.6-2.45l.12-.27.29,0c.52-.05,1.93-.34,2.31-1.06a1.32,1.32,0,0,0-.2-1.27l-.33-.59.66-.14c.53-.12,2.07-.62,2.23-1.4.11-.54-.47-1.3-1.64-2.13l-.54-.38.51-.42a1.53,1.53,0,0,0,.55-1.4c-.14-.76-1.14-2.27-6.15-3.88l-1.53-.69a1.08,1.08,0,0,1-.49-1.51,4.13,4.13,0,0,0,.52-2.6c-1,1-3.17,2.63-5.45,2.37C379.29,346.62,375.21,351.94,375.78,361.26ZM385.89,343Z" fill="#2f2e41"></path>
  <path d="M393.05,354.2a.45.45,0,0,1-.16,0l-12.51-4.05a.49.49,0,0,1-.32-.63.5.5,0,0,1,.63-.32l12.51,4.05a.5.5,0,0,1-.15,1Z" fill="#2f2e41"></path>
  <path d="M392.28,358.61a.32.32,0,0,1-.14,0l-14-4.14a.51.51,0,0,1-.33-.63.5.5,0,0,1,.62-.33l14,4.14a.5.5,0,0,1-.14,1Z" fill="#2f2e41"></path>
  <path d="M389.78,361.69h-.08c-.37-.06-9.12-1.46-12.58-2.81a.5.5,0,1,1,.36-.93c3.37,1.31,12.29,2.74,12.38,2.75a.5.5,0,0,1-.08,1Z" fill="#2f2e41"></path>
  <path d="M375.73,380.41A82.35,82.35,0,0,0,379,363.27l-3.74-1.69S375.68,373.8,375.73,380.41Z" fill="#f8844bff"></path>
  <path d="M375.26,383.53l0-3.11c-.05-6.54-.43-18.71-.43-18.83l0-.8,4.79,2.16,0,.35a83.06,83.06,0,0,1-3.32,17.26Zm.56-21.17c.07,2.31.27,9.13.37,14.6a78.67,78.67,0,0,0,2.32-13.38Z" fill="#2f2e41"></path>
  <path d="M357.66,356.11s10.44-16.26,21.93-15.81l2.16,3.17a.1.1,0,0,1-.05.14c-1.16.28-9.95,2.87-11.07,16.38l-2,18.26Z" fill="#fff"></path>
  <path d="M368.92,380l-11.84-23.92.16-.24c.43-.67,10.74-16.46,22.37-16h.25l2.45,3.59-.08.33a.57.57,0,0,1-.41.36c-1,.24-9.6,2.72-10.69,15.94Zm-10.69-23.85L368.3,376.5l1.84-16.57c1-12.48,8.58-15.89,10.88-16.65l-1.7-2.49h-.2C369,340.79,359.55,354.2,358.23,356.15Zm23.1-12.4h0Z" fill="#2f2e41"></path>
  <path d="M380.18,306.49h-.05a.49.49,0,0,1-.44-.55c2.49-21.41-2.9-35.28-3-35.41a.51.51,0,0,1,.28-.65.5.5,0,0,1,.65.28c.06.14,5.54,14.24,3,35.89A.51.51,0,0,1,380.18,306.49Z" fill="#2f2e41"></path>
  <path d="M459.85,381.48s19,11.06,18.56,19.33c0,0-6.24,2.19-16.78-5.76C461.63,395.05,460.84,387.59,459.85,381.48Z" fill="#fff"></path>
  <path d="M476.11,401.59c-2.81,0-7.9-.95-14.78-6.14l-.18-.13,0-.21c0-.08-.8-7.52-1.77-13.56l-.17-1,.91.53c.79.46,19.3,11.32,18.81,19.8l0,.33-.32.11A8.08,8.08,0,0,1,476.11,401.59Zm-14-6.81c8.73,6.52,14.43,5.92,15.82,5.64-.1-6.81-13.72-15.68-17.41-18C461.32,387.7,462,393.59,462.1,394.78Z" fill="#2f2e41"></path>
  <path d="M430.91,258.63c-11.16,14.43-28.26.77-28.26.77a55.85,55.85,0,0,0-12,1.71L424,304.16l22-41.62-7-.88S433.63,261,430.91,258.63Z" fill="#fff"></path>
  <path d="M424.12,305.08l-34.35-44.25.73-.2a56.52,56.52,0,0,1,12.14-1.73h.18l.14.11c.09.07,8.47,6.66,17.09,5.63a15.37,15.37,0,0,0,10.46-6.31l.33-.42.4.35c2.57,2.26,7.79,2.9,7.84,2.91l7.73,1Zm-32.63-43.67L424,303.24l21.29-40.3-6.29-.78c-.21,0-5.09-.62-8-2.82a16.18,16.18,0,0,1-10.82,6.29c-8.51,1-16.48-4.8-17.69-5.72A55.9,55.9,0,0,0,391.49,261.41Z" fill="#2f2e41"></path>
  <path d="M435.55,260.82s-12.51,22.61-37.31-1.06a43.92,43.92,0,0,1,4.41-.36s17.24,13.54,28.26-.77A15.42,15.42,0,0,0,435.55,260.82Z" fill="#f8844bff"></path>
  <path d="M419.42,271.07c-6.68,0-13.91-3.67-21.53-10.94l-.73-.7,1-.16a42.91,42.91,0,0,1,4.47-.37h.18l.15.11c.09.07,8.59,6.65,17.24,5.57a15.2,15.2,0,0,0,10.31-6.25l.3-.39.4.29a14.86,14.86,0,0,0,4.47,2.11l.61.17-.3.55c-.19.35-4.75,8.41-13.88,9.8A17.22,17.22,0,0,1,419.42,271.07Zm-20.06-10.94c8.12,7.52,15.72,10.79,22.59,9.75,7.32-1.12,11.66-7,12.83-8.77a16.41,16.41,0,0,1-3.77-1.8,16,16,0,0,1-10.69,6.26c-8.51,1.07-16.6-4.73-17.83-5.66C401.1,260,400.06,260.06,399.36,260.13Z" fill="#2f2e41"></path>
  <path d="M456.37,304.4a.48.48,0,0,1-.46-.32c-6.48-17-.5-39.9-.44-40.13a.5.5,0,1,1,1,.26c-.06.22-6,22.82.4,39.51a.5.5,0,0,1-.29.65Z" fill="#2f2e41"></path>
  <path d="M461.08,277.64h0a.5.5,0,0,1-.46-.54c.78-9.39,5.2-11.83,5.39-11.93a.49.49,0,0,1,.67.21.49.49,0,0,1-.2.67c-.05,0-4.13,2.35-4.86,11.13A.5.5,0,0,1,461.08,277.64Z" fill="#2f2e41"></path>
  <path d="M465.18,303.51a.39.39,0,0,1-.15,0,.51.51,0,0,1-.33-.63c3.53-11.34,5.6-37.79,5.62-38.05a.5.5,0,0,1,1,.07c0,.27-2.09,26.83-5.65,38.28A.51.51,0,0,1,465.18,303.51Z" fill="#2f2e41"></path>
  <path d="M357.35,329.9a.52.52,0,0,1-.38-.17.49.49,0,0,1,0-.7c5.2-4.56,13-4.45,13.29-4.45a.5.5,0,0,1,0,1c-.07,0-7.71-.09-12.61,4.2A.54.54,0,0,1,357.35,329.9Z" fill="#2f2e41"></path>
  <path d="M382.61,264.36l27.86,88s18.58,74.78,53.75,77c0,0,7.62.58,9.08-5l5.11-23.59s-8.76,2.92-22.86-10.94c0,0-11.43-9.49-21.65-34.78L412.75,294.3l-11.91-34.79S390.79,259.74,382.61,264.36Z" fill="#fff"></path>
  <path d="M464.74,429.93c-.34,0-.55,0-.56,0-35.12-2.25-53.44-74.34-54.2-77.41l-28-88.37.35-.2c8.2-4.63,18.37-4.92,18.47-4.92h.37l12,35.13,21.16,60.8c10,24.83,21.37,34.46,21.49,34.55,13.7,13.46,22.3,10.88,22.38,10.85l.83-.26-5.29,24.43C472.48,429.52,466.6,429.93,464.74,429.93ZM383.21,264.6l27.73,87.63c.2.77,18.91,74.48,53.31,76.68.07,0,7.23.48,8.57-4.64l4.93-22.81c-2.52.39-10.66.46-22.55-11.24-.09-.07-11.62-9.83-21.76-34.94l-21.16-60.82L400.49,260C398.65,260.12,390.25,260.76,383.21,264.6Z" fill="#2f2e41"></path>
  <path d="M477.19,406.66h-.05c-31.82-3.4-48.89-56.23-49.06-56.77l-31.37-89.47a.5.5,0,1,1,1-.33L429,349.58c.17.54,17.05,52.75,48.21,56.08a.5.5,0,0,1-.05,1Z" fill="#2f2e41"></path>
  <path d="M472.57,426.36c-.28,0-28.23-.42-43.5-36.3l-11.38-27.4c-1.17-2.81-2.24-5.7-3.18-8.6l-29.72-91.22a.5.5,0,0,1,.32-.63.49.49,0,0,1,.63.32l29.72,91.22c.93,2.87,2,5.74,3.15,8.53L430,389.67c15,35.28,42.31,35.69,42.58,35.69a.5.5,0,0,1,.5.5A.5.5,0,0,1,472.57,426.36Z" fill="#2f2e41"></path>
</svg>
